<svg id="visual" viewBox="0 0 960 540" width="960" height="540" xmlns="http://www.w3.org/2000/svg" xmlns:xlink="http://www.w3.org/1999/xlink" version="1.1"><rect x="0" y="0" width="960" height="540" fill="#001122"></rect><path d="M0 312L22.8 320.8C45.7 329.7 91.3 347.3 137 354.8C182.7 362.3 228.3 359.7 274 351C319.7 342.3 365.3 327.7 411.2 323C457 318.3 503 323.7 548.8 319.2C594.7 314.7 640.3 300.3 686 307.8C731.7 315.3 777.3 344.7 823 359C868.7 373.3 914.3 372.7 937.2 372.3L960 372L960 541L937.2 541C914.3 541 868.7 541 823 541C777.3 541 731.7 541 686 541C640.3 541 594.7 541 548.8 541C503 541 457 541 411.2 541C365.3 541 319.7 541 274 541C228.3 541 182.7 541 137 541C91.3 541 45.7 541 22.8 541L0 541Z" fill="#2cceab"></path><path d="M0 323L22.8 336.3C45.7 349.7 91.3 376.3 137 376.7C182.7 377 228.3 351 274 341.7C319.7 332.3 365.3 339.7 411.2 346.2C457 352.7 503 358.3 548.8 355.2C594.7 352 640.3 340 686 345.3C731.7 350.7 777.3 373.3 823 378.2C868.7 383 914.3 370 937.2 363.5L960 357L960 541L937.2 541C914.3 541 868.7 541 823 541C777.3 541 731.7 541 686 541C640.3 541 594.7 541 548.8 541C503 541 457 541 411.2 541C365.3 541 319.7 541 274 541C228.3 541 182.7 541 137 541C91.3 541 45.7 541 22.8 541L0 541Z" fill="#23bf9c"></path><path d="M0 386L22.8 395C45.7 404 91.3 422 137 425.7C182.7 429.3 228.3 418.7 274 419.2C319.7 419.7 365.3 431.3 411.2 429.7C457 428 503 413 548.8 400.2C594.7 387.3 640.3 376.7 686 383C731.7 389.3 777.3 412.7 823 420.2C868.7 427.7 914.3 419.3 937.2 415.2L960 411L960 541L937.2 541C914.3 541 868.7 541 823 541C777.3 541 731.7 541 686 541C640.3 541 594.7 541 548.8 541C503 541 457 541 411.2 541C365.3 541 319.7 541 274 541C228.3 541 182.7 541 137 541C91.3 541 45.7 541 22.8 541L0 541Z" fill="#1ab18e"></path><path d="M0 446L22.8 442.2C45.7 438.3 91.3 430.7 137 430C182.7 429.3 228.3 435.7 274 436.3C319.7 437 365.3 432 411.2 435.5C457 439 503 451 548.8 452.8C594.7 454.7 640.3 446.3 686 437.7C731.7 429 777.3 420 823 421.2C868.7 422.3 914.3 433.7 937.2 439.3L960 445L960 541L937.2 541C914.3 541 868.7 541 823 541C777.3 541 731.7 541 686 541C640.3 541 594.7 541 548.8 541C503 541 457 541 411.2 541C365.3 541 319.7 541 274 541C228.3 541 182.7 541 137 541C91.3 541 45.7 541 22.8 541L0 541Z" fill="#0fa280"></path><path d="M0 459L22.8 462.8C45.7 466.7 91.3 474.3 137 478C182.7 481.7 228.3 481.3 274 478C319.7 474.7 365.3 468.3 411.2 473C457 477.7 503 493.3 548.8 500.7C594.7 508 640.3 507 686 501.5C731.7 496 777.3 486 823 481.5C868.7 477 914.3 478 937.2 478.5L960 479L960 541L937.2 541C914.3 541 868.7 541 823 541C777.3 541 731.7 541 686 541C640.3 541 594.7 541 548.8 541C503 541 457 541 411.2 541C365.3 541 319.7 541 274 541C228.3 541 182.7 541 137 541C91.3 541 45.7 541 22.8 541L0 541Z" fill="#009473"></path></svg>